<svg width="11" height="8" viewBox="0 0 11 8" fill="none" xmlns="http://www.w3.org/2000/svg">
<path fill-rule="evenodd" clip-rule="evenodd" d="M1.04289 0.792893C0.75 1.08579 0.75 1.55719 0.75 2.5V5.5C0.75 6.44281 0.75 6.91421 1.04289 7.20711C1.33579 7.5 1.80719 7.5 2.75 7.5H7.04352C7.82722 7.5 8.21908 7.5 8.56682 7.3657C8.71981 7.30662 8.86496 7.22894 8.99898 7.13442C9.30362 6.91957 9.52098 6.59353 9.9557 5.94145C10.4913 5.13808 10.7591 4.7364 10.8247 4.29294C10.8535 4.09871 10.8535 3.90129 10.8247 3.70706C10.7591 3.2636 10.4913 2.86192 9.9557 2.05855C9.52098 1.40647 9.30362 1.08043 8.99898 0.865584C8.86496 0.77106 8.71981 0.693382 8.56682 0.634297C8.21908 0.5 7.82723 0.5 7.04352 0.5H2.75C1.80719 0.5 1.33579 0.5 1.04289 0.792893ZM7.75 5.16667C8.39433 5.16667 8.91667 4.64433 8.91667 4C8.91667 3.35567 8.39433 2.83333 7.75 2.83333C7.10567 2.83333 6.58333 3.35567 6.58333 4C6.58333 4.64433 7.10567 5.16667 7.75 5.16667Z" fill="#666666"/>
</svg>
